Coordinates
version=1
nRows=8
nColumns=36
inDegrees=yes

Units are S.I. units (second, meters, Newtons, ...)
If the header above contains a line with 'inDegrees', this indicates whether rotational values are in degrees (yes) or radians (no).

endheader
time	pelvis_tilt	pelvis_list	pelvis_rotation	pelvis_tx	pelvis_ty	pelvis_tz	hip_flexion_r	hip_adduction_r	hip_rotation_r	knee_angle_r	knee_angle_r_beta	ankle_angle_r	subtalar_angle_r	mtp_angle_r	hip_flexion_l	hip_adduction_l	hip_rotation_l	knee_angle_l	knee_angle_l_beta	ankle_angle_l	subtalar_angle_l	mtp_angle_l	lumbar_extension	lumbar_bending	lumbar_rotation	arm_flex_r	arm_add_r	arm_rot_r	elbow_flex_r	pro_sup_r	arm_flex_l	arm_add_l	arm_rot_l	elbow_flex_l	pro_sup_l
     30.31666670	      3.12906906	      3.72246847	      0.88134930	      0.77647968	      0.80809941	      0.71091049	     -9.16457511	     -4.84644737	     -4.78232210	     48.00979912	      0.83792907	    -12.48060979	    -10.50167204	     -7.49999987	     20.37764254	      8.20609984	      9.08493044	     20.95188821	      0.36567943	      4.20422157	     -8.93107464	     -7.49999987	     -9.97127842	     -4.86520938	      3.52577666	     16.46796156	    -16.33292586	      3.59619523	     28.61156859	     91.52093066	      6.49452318	    -10.67855750	      0.09929899	      6.59447807	     95.40730495
     30.33333330	      3.32097821	      3.38271388	      0.26922481	      0.77737453	      0.81073174	      0.71218928	     -4.89796622	     -5.22505577	     -4.76563957	     54.16105853	      0.94528880	    -14.35036328	    -11.38775820	     -7.49999987	     18.13096278	      7.72163445	      9.21586308	     20.04530844	      0.34985663	      4.78031840	     -9.46707372	     -7.49999987	    -10.46671786	     -4.51549482	      3.22927682	     15.32299526	    -15.62735687	      3.68400071	     27.39510817	     90.61782077	      6.86031078	    -10.63688246	      0.57432548	      6.84206500	     93.90761111
     30.35000000	      2.89922014	      3.09700225	     -0.43504022	      0.77839309	      0.81445692	      0.71379028	     -0.22729973	     -5.19037201	     -4.25548877	     58.94235790	      1.02873821	    -14.44629849	    -12.56124828	     -7.49999987	     16.52745417	      7.16885267	      8.91540435	     19.12296974	      0.33375878	      5.28248307	     -9.98800969	     -7.49999987	    -10.16875987	     -4.32237622	      3.20210447	     13.55548720	    -14.96042871	      3.91883887	     26.55921886	     87.97845725	      7.28336631	    -10.65226819	      1.10365282	      7.09749710	     90.71422900
     30.36666670	      3.13181923	      2.54301638	     -0.63323184	      0.77782974	      0.82048912	      0.71313968	      3.09922307	     -4.65964580	     -4.34477791	     62.00289797	      1.08215472	    -12.39472800	    -11.95143717	     -7.49999987	     14.09975966	      6.51439816	      9.33565497	     18.01566161	      0.31443261	      5.55011112	    -10.68610062	     -7.49999987	    -10.67605449	     -3.62241411	      2.40533168	     12.58547775	    -14.48999309	      4.70658239	     24.62974945	     94.41903682	      7.85041063	    -10.88233528	      5.13936401	      7.49218751	     94.26517779
     30.38333330	      3.06779818	      2.10661421	     -0.95155937	      0.77729102	      0.82673169	      0.71117130	      6.59923704	     -3.98902971	     -4.08411889	     64.10558284	      1.11885349	    -10.35624616	    -12.69072277	     -7.49999987	     12.04138250	      5.93010385	      9.46701218	     16.95946256	      0.29599846	      5.71015081	    -11.48733360	     -7.49999987	    -10.85213601	     -3.05834665	      1.96011441	     10.88870710	    -13.86571265	      4.37169101	     23.70460596	     92.60562472	      8.66670475	    -10.79068424	      5.04323788	      8.05931493	     92.28383054
     30.40000000	      3.07398991	      1.60562157	     -1.26884190	      0.77901126	      0.83444210	      0.70937953	      9.89127491	     -3.13374500	     -3.71902310	     65.02971417	      1.13498262	     -7.32590523	    -13.05413741	     -7.49999987	      9.82544393	      5.23800628	      9.26289464	     15.85410948	      0.27670641	      6.24177259	    -11.40797429	     -7.49999987	    -10.92524059	     -2.33526455	      1.48846330	      9.47253974	    -13.15753121	      4.17590453	     21.73620936	     92.55183519	      9.54784809	    -10.79833615	      5.39287417	      8.69029548	     92.07814189
     30.41666670	      3.18232893	      1.09989476	     -1.54260758	      0.78200559	      0.84253734	      0.70914848	     12.84259227	     -2.19845384	     -3.32857239	     64.44118025	      1.12471077	     -3.88918820	    -13.49913699	     -7.49999987	      7.29022055	      4.52480262	      9.01213798	     14.55731294	      0.25407304	      6.69229840	    -11.20937058	     -7.49999987	    -10.97317795	     -1.56371933	      0.89499758	      7.89621655	    -12.52752647	      4.10739388	     20.11889853	     92.60214965	     10.33689926	    -10.93076765	      5.85309925	      9.40753440	     91.99654677
     30.43333330	      3.35637797	      0.60114779	     -1.69835641	      0.78270524	      0.84795856	      0.70970222	     15.27022041	     -1.26674646	     -3.05716763	     62.02183608	      1.08248525	     -0.19033659	    -13.59645084	     -7.49999987	      4.54525113	      3.80780087	      8.77283143	     13.21280470	      0.23060695	      7.42760073	    -10.57847345	     -7.49999987	    -11.02472311	     -0.76798874	      0.12916909	      6.45013597	    -11.89770693	      2.79572927	     18.47048108	     97.84898030	     11.18134965	    -11.41482552	      9.07432247	     10.11268308	     94.61661785
